<svg width="140" height="42" viewBox="0 0 140 42" fill="none" xmlns="http://www.w3.org/2000/svg">
<path d="M129 29H140V38H129V29Z" fill="url(#paint0_linear_51_105)"/>
<path d="M27.2461 38H3.24707V2.99023H27.2461V9.99707H10.2539V17.0039H21.7529V24.0107H10.2539V30.9932H27.2461V38Z" fill="black"/>
<path d="M35.7119 13.4883C35.7119 12.0397 35.9886 10.6807 36.542 9.41113C37.0954 8.1416 37.8441 7.03483 38.7881 6.09082C39.7484 5.13053 40.8633 4.3737 42.1328 3.82031C43.4023 3.26693 44.7614 2.99023 46.21 2.99023H62.2744V9.99707H46.21C45.7217 9.99707 45.2659 10.0866 44.8428 10.2656C44.4196 10.4447 44.0452 10.6969 43.7197 11.0225C43.4105 11.3317 43.1663 11.6979 42.9873 12.1211C42.8083 12.5443 42.7188 13 42.7188 13.4883C42.7188 13.9766 42.8083 14.4404 42.9873 14.8799C43.1663 15.3031 43.4105 15.6774 43.7197 16.0029C44.0452 16.3122 44.4196 16.5563 44.8428 16.7354C45.2659 16.9144 45.7217 17.0039 46.21 17.0039H53.2168C54.6654 17.0039 56.0244 17.2806 57.2939 17.834C58.5798 18.3711 59.6947 19.1198 60.6387 20.0801C61.599 21.0241 62.3477 22.139 62.8848 23.4248C63.4382 24.6943 63.7148 26.0534 63.7148 27.502C63.7148 28.9505 63.4382 30.3096 62.8848 31.5791C62.3477 32.8486 61.599 33.9635 60.6387 34.9238C59.6947 35.8678 58.5798 36.6165 57.2939 37.1699C56.0244 37.7233 54.6654 38 53.2168 38H37.665V30.9932H53.2168C53.7051 30.9932 54.1608 30.9036 54.584 30.7246C55.0072 30.5456 55.3734 30.3014 55.6826 29.9922C56.0081 29.6667 56.2604 29.2923 56.4395 28.8691C56.6185 28.446 56.708 27.9902 56.708 27.502C56.708 27.0137 56.6185 26.5579 56.4395 26.1348C56.2604 25.7116 56.0081 25.3454 55.6826 25.0361C55.3734 24.7106 55.0072 24.4583 54.584 24.2793C54.1608 24.1003 53.7051 24.0107 53.2168 24.0107H46.21C44.7614 24.0107 43.4023 23.734 42.1328 23.1807C40.8633 22.6273 39.7484 21.8786 38.7881 20.9346C37.8441 19.9743 37.0954 18.8594 36.542 17.5898C35.9886 16.304 35.7119 14.9368 35.7119 13.4883Z" fill="black"/>
<path d="M102.186 34.46C100.558 35.8434 98.7432 36.9095 96.7412 37.6582C94.7393 38.3906 92.6559 38.7568 90.4912 38.7568C88.8311 38.7568 87.2279 38.5371 85.6816 38.0977C84.1517 37.6745 82.7194 37.0723 81.3848 36.291C80.0501 35.4935 78.8294 34.5495 77.7227 33.459C76.6159 32.3522 75.6719 31.1315 74.8906 29.7969C74.1094 28.446 73.499 26.9974 73.0596 25.4512C72.6364 23.9049 72.4248 22.3018 72.4248 20.6416C72.4248 18.9814 72.6364 17.3864 73.0596 15.8564C73.499 14.3265 74.1094 12.8942 74.8906 11.5596C75.6719 10.2087 76.6159 8.98796 77.7227 7.89746C78.8294 6.79069 80.0501 5.84668 81.3848 5.06543C82.7194 4.28418 84.1517 3.68197 85.6816 3.25879C87.2279 2.81934 88.8311 2.59961 90.4912 2.59961C92.6559 2.59961 94.7393 2.97396 96.7412 3.72266C98.7432 4.45508 100.558 5.51302 102.186 6.89648L98.5234 13C97.4655 11.9258 96.2448 11.0876 94.8613 10.4854C93.4779 9.86686 92.0212 9.55762 90.4912 9.55762C88.9613 9.55762 87.5208 9.85059 86.1699 10.4365C84.8353 11.0225 83.6634 11.82 82.6543 12.8291C81.6452 13.8219 80.8477 14.9938 80.2617 16.3447C79.6758 17.6794 79.3828 19.1117 79.3828 20.6416C79.3828 22.1878 79.6758 23.6364 80.2617 24.9873C80.8477 26.3382 81.6452 27.5182 82.6543 28.5273C83.6634 29.5365 84.8353 30.334 86.1699 30.9199C87.5208 31.5059 88.9613 31.7988 90.4912 31.7988C91.3701 31.7988 92.2246 31.693 93.0547 31.4814C93.8848 31.2699 94.6742 30.9769 95.4229 30.6025V20.6416H102.186V34.46Z" fill="black"/>
<path d="M120.588 38H113.581V2.99023H120.588V38Z" fill="black"/>
<defs>
<linearGradient id="paint0_linear_51_105" x1="130.875" y1="25.898" x2="139.959" y2="26.8701" gradientUnits="userSpaceOnUse">
<stop stop-color="#FFD0A8"/>
<stop offset="0.9995" stop-color="#FF4FC0"/>
</linearGradient>
</defs>
</svg>
